<mxfile host="app.diagrams.net" agent="Mozilla/5.0 (Windows NT 10.0; Win64; x64) AppleWebKit/537.36 (KHTML, like Gecko) Chrome/133.0.0.0 Safari/537.36 Edg/133.0.0.0" version="26.0.16">
  <diagram name="第 1 页" id="DmrCexpdW_UTFbQqnz0j">
    <mxGraphModel dx="1737" dy="955" grid="0" gridSize="10" guides="1" tooltips="1" connect="1" arrows="1" fold="1" page="0" pageScale="1" pageWidth="827" pageHeight="1169" math="0" shadow="0">
      <root>
        <mxCell id="0" />
        <mxCell id="1" parent="0" />
        <mxCell id="uBfGSXeM0kYEmdfcEIhJ-161" value="" style="edgeStyle=orthogonalEdgeStyle;rounded=0;orthogonalLoop=1;jettySize=auto;html=1;entryX=0.5;entryY=0;entryDx=0;entryDy=0;" edge="1" parent="1" source="uBfGSXeM0kYEmdfcEIhJ-162" target="uBfGSXeM0kYEmdfcEIhJ-164">
          <mxGeometry relative="1" as="geometry" />
        </mxCell>
        <mxCell id="uBfGSXeM0kYEmdfcEIhJ-162" value="开始" style="rounded=1;whiteSpace=wrap;html=1;" vertex="1" parent="1">
          <mxGeometry x="335.5" width="97" height="40" as="geometry" />
        </mxCell>
        <mxCell id="uBfGSXeM0kYEmdfcEIhJ-163" value="" style="edgeStyle=orthogonalEdgeStyle;rounded=0;orthogonalLoop=1;jettySize=auto;html=1;" edge="1" parent="1" source="uBfGSXeM0kYEmdfcEIhJ-164" target="uBfGSXeM0kYEmdfcEIhJ-166">
          <mxGeometry relative="1" as="geometry" />
        </mxCell>
        <mxCell id="uBfGSXeM0kYEmdfcEIhJ-164" value="管理员登入系统" style="rounded=0;whiteSpace=wrap;html=1;" vertex="1" parent="1">
          <mxGeometry x="324" y="68" width="120" height="60" as="geometry" />
        </mxCell>
        <mxCell id="uBfGSXeM0kYEmdfcEIhJ-165" value="" style="edgeStyle=orthogonalEdgeStyle;rounded=0;orthogonalLoop=1;jettySize=auto;html=1;" edge="1" parent="1" source="uBfGSXeM0kYEmdfcEIhJ-166" target="uBfGSXeM0kYEmdfcEIhJ-182">
          <mxGeometry relative="1" as="geometry" />
        </mxCell>
        <mxCell id="uBfGSXeM0kYEmdfcEIhJ-166" value="员工管理" style="rounded=0;whiteSpace=wrap;html=1;" vertex="1" parent="1">
          <mxGeometry x="324" y="152" width="120" height="60" as="geometry" />
        </mxCell>
        <mxCell id="uBfGSXeM0kYEmdfcEIhJ-167" style="edgeStyle=orthogonalEdgeStyle;rounded=0;orthogonalLoop=1;jettySize=auto;html=1;entryX=0.5;entryY=0;entryDx=0;entryDy=0;" edge="1" parent="1" source="uBfGSXeM0kYEmdfcEIhJ-168" target="uBfGSXeM0kYEmdfcEIhJ-184">
          <mxGeometry relative="1" as="geometry" />
        </mxCell>
        <mxCell id="uBfGSXeM0kYEmdfcEIhJ-168" value="新建员工数据" style="rounded=0;whiteSpace=wrap;html=1;" vertex="1" parent="1">
          <mxGeometry x="23" y="335" width="120" height="55" as="geometry" />
        </mxCell>
        <mxCell id="uBfGSXeM0kYEmdfcEIhJ-169" style="edgeStyle=orthogonalEdgeStyle;rounded=0;orthogonalLoop=1;jettySize=auto;html=1;entryX=0.5;entryY=0;entryDx=0;entryDy=0;" edge="1" parent="1" source="uBfGSXeM0kYEmdfcEIhJ-170" target="uBfGSXeM0kYEmdfcEIhJ-184">
          <mxGeometry relative="1" as="geometry" />
        </mxCell>
        <mxCell id="uBfGSXeM0kYEmdfcEIhJ-170" value="编辑员工数据" style="rounded=0;whiteSpace=wrap;html=1;" vertex="1" parent="1">
          <mxGeometry x="165" y="335" width="120" height="55" as="geometry" />
        </mxCell>
        <mxCell id="uBfGSXeM0kYEmdfcEIhJ-171" value="" style="edgeStyle=orthogonalEdgeStyle;rounded=0;orthogonalLoop=1;jettySize=auto;html=1;" edge="1" parent="1" source="uBfGSXeM0kYEmdfcEIhJ-172" target="uBfGSXeM0kYEmdfcEIhJ-196">
          <mxGeometry relative="1" as="geometry" />
        </mxCell>
        <mxCell id="uBfGSXeM0kYEmdfcEIhJ-172" value="删除员工数据" style="rounded=0;whiteSpace=wrap;html=1;" vertex="1" parent="1">
          <mxGeometry x="326" y="335" width="120" height="55" as="geometry" />
        </mxCell>
        <mxCell id="uBfGSXeM0kYEmdfcEIhJ-173" value="" style="edgeStyle=orthogonalEdgeStyle;rounded=0;orthogonalLoop=1;jettySize=auto;html=1;" edge="1" parent="1" source="uBfGSXeM0kYEmdfcEIhJ-174" target="uBfGSXeM0kYEmdfcEIhJ-201">
          <mxGeometry relative="1" as="geometry" />
        </mxCell>
        <mxCell id="uBfGSXeM0kYEmdfcEIhJ-174" value="重置员工密码" style="rounded=0;whiteSpace=wrap;html=1;" vertex="1" parent="1">
          <mxGeometry x="506" y="335" width="120" height="55" as="geometry" />
        </mxCell>
        <mxCell id="uBfGSXeM0kYEmdfcEIhJ-175" style="edgeStyle=orthogonalEdgeStyle;rounded=0;orthogonalLoop=1;jettySize=auto;html=1;entryX=1;entryY=0.5;entryDx=0;entryDy=0;exitX=0.5;exitY=1;exitDx=0;exitDy=0;" edge="1" parent="1" source="uBfGSXeM0kYEmdfcEIhJ-176" target="uBfGSXeM0kYEmdfcEIhJ-191">
          <mxGeometry relative="1" as="geometry" />
        </mxCell>
        <mxCell id="uBfGSXeM0kYEmdfcEIhJ-176" value="查看员工库存操作记录" style="rounded=0;whiteSpace=wrap;html=1;" vertex="1" parent="1">
          <mxGeometry x="686" y="339" width="120" height="55" as="geometry" />
        </mxCell>
        <mxCell id="uBfGSXeM0kYEmdfcEIhJ-177" style="edgeStyle=orthogonalEdgeStyle;rounded=0;orthogonalLoop=1;jettySize=auto;html=1;" edge="1" parent="1" source="uBfGSXeM0kYEmdfcEIhJ-182" target="uBfGSXeM0kYEmdfcEIhJ-168">
          <mxGeometry relative="1" as="geometry" />
        </mxCell>
        <mxCell id="uBfGSXeM0kYEmdfcEIhJ-178" style="edgeStyle=orthogonalEdgeStyle;rounded=0;orthogonalLoop=1;jettySize=auto;html=1;" edge="1" parent="1" source="uBfGSXeM0kYEmdfcEIhJ-182" target="uBfGSXeM0kYEmdfcEIhJ-170">
          <mxGeometry relative="1" as="geometry" />
        </mxCell>
        <mxCell id="uBfGSXeM0kYEmdfcEIhJ-179" value="" style="edgeStyle=orthogonalEdgeStyle;rounded=0;orthogonalLoop=1;jettySize=auto;html=1;" edge="1" parent="1" source="uBfGSXeM0kYEmdfcEIhJ-182" target="uBfGSXeM0kYEmdfcEIhJ-172">
          <mxGeometry relative="1" as="geometry" />
        </mxCell>
        <mxCell id="uBfGSXeM0kYEmdfcEIhJ-180" style="edgeStyle=orthogonalEdgeStyle;rounded=0;orthogonalLoop=1;jettySize=auto;html=1;" edge="1" parent="1" source="uBfGSXeM0kYEmdfcEIhJ-182" target="uBfGSXeM0kYEmdfcEIhJ-174">
          <mxGeometry relative="1" as="geometry" />
        </mxCell>
        <mxCell id="uBfGSXeM0kYEmdfcEIhJ-181" style="edgeStyle=orthogonalEdgeStyle;rounded=0;orthogonalLoop=1;jettySize=auto;html=1;" edge="1" parent="1" source="uBfGSXeM0kYEmdfcEIhJ-182" target="uBfGSXeM0kYEmdfcEIhJ-176">
          <mxGeometry relative="1" as="geometry" />
        </mxCell>
        <mxCell id="uBfGSXeM0kYEmdfcEIhJ-182" value="选择操作" style="rounded=0;whiteSpace=wrap;html=1;" vertex="1" parent="1">
          <mxGeometry x="326" y="241" width="120" height="60" as="geometry" />
        </mxCell>
        <mxCell id="uBfGSXeM0kYEmdfcEIhJ-183" style="edgeStyle=orthogonalEdgeStyle;rounded=0;orthogonalLoop=1;jettySize=auto;html=1;" edge="1" parent="1" source="uBfGSXeM0kYEmdfcEIhJ-184" target="uBfGSXeM0kYEmdfcEIhJ-187">
          <mxGeometry relative="1" as="geometry" />
        </mxCell>
        <mxCell id="uBfGSXeM0kYEmdfcEIhJ-184" value="编辑用户信息" style="rounded=0;whiteSpace=wrap;html=1;" vertex="1" parent="1">
          <mxGeometry x="105" y="428" width="120" height="60" as="geometry" />
        </mxCell>
        <mxCell id="uBfGSXeM0kYEmdfcEIhJ-185" style="edgeStyle=orthogonalEdgeStyle;rounded=0;orthogonalLoop=1;jettySize=auto;html=1;entryX=0;entryY=0.5;entryDx=0;entryDy=0;exitX=0.5;exitY=1;exitDx=0;exitDy=0;" edge="1" parent="1" source="uBfGSXeM0kYEmdfcEIhJ-187" target="uBfGSXeM0kYEmdfcEIhJ-191">
          <mxGeometry relative="1" as="geometry" />
        </mxCell>
        <mxCell id="uBfGSXeM0kYEmdfcEIhJ-186" style="edgeStyle=orthogonalEdgeStyle;rounded=0;orthogonalLoop=1;jettySize=auto;html=1;entryX=0;entryY=0.5;entryDx=0;entryDy=0;exitX=0;exitY=0.5;exitDx=0;exitDy=0;" edge="1" parent="1" source="uBfGSXeM0kYEmdfcEIhJ-187" target="uBfGSXeM0kYEmdfcEIhJ-184">
          <mxGeometry relative="1" as="geometry" />
        </mxCell>
        <mxCell id="uBfGSXeM0kYEmdfcEIhJ-187" value="数据库保存" style="rhombus;whiteSpace=wrap;html=1;" vertex="1" parent="1">
          <mxGeometry x="101.5" y="552" width="127" height="58" as="geometry" />
        </mxCell>
        <mxCell id="uBfGSXeM0kYEmdfcEIhJ-188" value="" style="edgeStyle=orthogonalEdgeStyle;rounded=0;orthogonalLoop=1;jettySize=auto;html=1;" edge="1" parent="1" source="uBfGSXeM0kYEmdfcEIhJ-191" target="uBfGSXeM0kYEmdfcEIhJ-205">
          <mxGeometry relative="1" as="geometry">
            <mxPoint x="385.9999999999998" y="804.5000000000002" as="targetPoint" />
          </mxGeometry>
        </mxCell>
        <mxCell id="uBfGSXeM0kYEmdfcEIhJ-189" style="edgeStyle=orthogonalEdgeStyle;rounded=0;orthogonalLoop=1;jettySize=auto;html=1;" edge="1" parent="1" source="uBfGSXeM0kYEmdfcEIhJ-191" target="uBfGSXeM0kYEmdfcEIhJ-172">
          <mxGeometry relative="1" as="geometry" />
        </mxCell>
        <mxCell id="uBfGSXeM0kYEmdfcEIhJ-190" style="edgeStyle=orthogonalEdgeStyle;rounded=0;orthogonalLoop=1;jettySize=auto;html=1;entryX=1;entryY=0.5;entryDx=0;entryDy=0;" edge="1" parent="1" source="uBfGSXeM0kYEmdfcEIhJ-191" target="uBfGSXeM0kYEmdfcEIhJ-182">
          <mxGeometry relative="1" as="geometry">
            <Array as="points">
              <mxPoint x="842" y="688" />
              <mxPoint x="842" y="271" />
            </Array>
          </mxGeometry>
        </mxCell>
        <mxCell id="uBfGSXeM0kYEmdfcEIhJ-191" value="是否继续操作" style="rhombus;whiteSpace=wrap;html=1;" vertex="1" parent="1">
          <mxGeometry x="322" y="654" width="128" height="67" as="geometry" />
        </mxCell>
        <mxCell id="uBfGSXeM0kYEmdfcEIhJ-192" value="成功" style="text;html=1;align=center;verticalAlign=middle;resizable=0;points=[];autosize=1;strokeColor=none;fillColor=none;" vertex="1" parent="1">
          <mxGeometry x="177" y="648" width="42" height="26" as="geometry" />
        </mxCell>
        <mxCell id="uBfGSXeM0kYEmdfcEIhJ-193" value="失败" style="text;html=1;align=center;verticalAlign=middle;resizable=0;points=[];autosize=1;strokeColor=none;fillColor=none;" vertex="1" parent="1">
          <mxGeometry x="42" y="512" width="42" height="26" as="geometry" />
        </mxCell>
        <mxCell id="uBfGSXeM0kYEmdfcEIhJ-194" style="edgeStyle=orthogonalEdgeStyle;rounded=0;orthogonalLoop=1;jettySize=auto;html=1;entryX=0;entryY=0.5;entryDx=0;entryDy=0;exitX=0;exitY=0.5;exitDx=0;exitDy=0;" edge="1" parent="1" source="uBfGSXeM0kYEmdfcEIhJ-196" target="uBfGSXeM0kYEmdfcEIhJ-172">
          <mxGeometry relative="1" as="geometry" />
        </mxCell>
        <mxCell id="uBfGSXeM0kYEmdfcEIhJ-195" value="" style="edgeStyle=orthogonalEdgeStyle;rounded=0;orthogonalLoop=1;jettySize=auto;html=1;" edge="1" parent="1" source="uBfGSXeM0kYEmdfcEIhJ-196" target="uBfGSXeM0kYEmdfcEIhJ-191">
          <mxGeometry relative="1" as="geometry" />
        </mxCell>
        <mxCell id="uBfGSXeM0kYEmdfcEIhJ-196" value="数据库保存" style="rhombus;whiteSpace=wrap;html=1;" vertex="1" parent="1">
          <mxGeometry x="322.5" y="483" width="127" height="58" as="geometry" />
        </mxCell>
        <mxCell id="uBfGSXeM0kYEmdfcEIhJ-197" value="失败" style="text;html=1;align=center;verticalAlign=middle;resizable=0;points=[];autosize=1;strokeColor=none;fillColor=none;" vertex="1" parent="1">
          <mxGeometry x="289" y="416" width="42" height="26" as="geometry" />
        </mxCell>
        <mxCell id="uBfGSXeM0kYEmdfcEIhJ-198" value="成功" style="text;html=1;align=center;verticalAlign=middle;resizable=0;points=[];autosize=1;strokeColor=none;fillColor=none;" vertex="1" parent="1">
          <mxGeometry x="331" y="581" width="42" height="26" as="geometry" />
        </mxCell>
        <mxCell id="uBfGSXeM0kYEmdfcEIhJ-199" style="edgeStyle=orthogonalEdgeStyle;rounded=0;orthogonalLoop=1;jettySize=auto;html=1;entryX=0;entryY=0.5;entryDx=0;entryDy=0;exitX=0;exitY=0.5;exitDx=0;exitDy=0;" edge="1" parent="1" source="uBfGSXeM0kYEmdfcEIhJ-201" target="uBfGSXeM0kYEmdfcEIhJ-174">
          <mxGeometry relative="1" as="geometry" />
        </mxCell>
        <mxCell id="uBfGSXeM0kYEmdfcEIhJ-200" style="edgeStyle=orthogonalEdgeStyle;rounded=0;orthogonalLoop=1;jettySize=auto;html=1;entryX=1;entryY=0.5;entryDx=0;entryDy=0;exitX=0.5;exitY=1;exitDx=0;exitDy=0;" edge="1" parent="1" source="uBfGSXeM0kYEmdfcEIhJ-201" target="uBfGSXeM0kYEmdfcEIhJ-191">
          <mxGeometry relative="1" as="geometry" />
        </mxCell>
        <mxCell id="uBfGSXeM0kYEmdfcEIhJ-201" value="数据库保存" style="rhombus;whiteSpace=wrap;html=1;" vertex="1" parent="1">
          <mxGeometry x="503" y="483" width="127" height="58" as="geometry" />
        </mxCell>
        <mxCell id="uBfGSXeM0kYEmdfcEIhJ-202" value="失败" style="text;html=1;align=center;verticalAlign=middle;resizable=0;points=[];autosize=1;strokeColor=none;fillColor=none;" vertex="1" parent="1">
          <mxGeometry x="471" y="407" width="42" height="26" as="geometry" />
        </mxCell>
        <mxCell id="uBfGSXeM0kYEmdfcEIhJ-203" value="成功" style="text;html=1;align=center;verticalAlign=middle;resizable=0;points=[];autosize=1;strokeColor=none;fillColor=none;" vertex="1" parent="1">
          <mxGeometry x="511" y="571" width="42" height="26" as="geometry" />
        </mxCell>
        <mxCell id="uBfGSXeM0kYEmdfcEIhJ-204" value="成功" style="text;html=1;align=center;verticalAlign=middle;resizable=0;points=[];autosize=1;strokeColor=none;fillColor=none;" vertex="1" parent="1">
          <mxGeometry x="702" y="573" width="42" height="26" as="geometry" />
        </mxCell>
        <mxCell id="uBfGSXeM0kYEmdfcEIhJ-205" value="结束" style="rounded=1;whiteSpace=wrap;html=1;" vertex="1" parent="1">
          <mxGeometry x="326.5" y="865" width="120" height="60" as="geometry" />
        </mxCell>
        <mxCell id="uBfGSXeM0kYEmdfcEIhJ-206" value="否" style="text;html=1;align=center;verticalAlign=middle;resizable=0;points=[];autosize=1;strokeColor=none;fillColor=none;" vertex="1" parent="1">
          <mxGeometry x="392" y="822" width="30" height="26" as="geometry" />
        </mxCell>
        <mxCell id="uBfGSXeM0kYEmdfcEIhJ-207" value="是" style="text;html=1;align=center;verticalAlign=middle;resizable=0;points=[];autosize=1;strokeColor=none;fillColor=none;" vertex="1" parent="1">
          <mxGeometry x="848" y="502" width="30" height="26" as="geometry" />
        </mxCell>
      </root>
    </mxGraphModel>
  </diagram>
</mxfile>
